<svg width="206" height="646" viewBox="0 0 206 646" fill="none" xmlns="http://www.w3.org/2000/svg">
<mask id="mask0_1_2296" style="mask-type:alpha" maskUnits="userSpaceOnUse" x="-1" y="-1" width="381" height="647">
<line x1="-0.278864" y1="254.924" x2="379.721" y2="-0.414943" stroke="#A5E5F4"/>
<line x1="-0.278864" y1="262.29" x2="379.721" y2="6.95176" stroke="#A5E5F4"/>
<line x1="-0.278864" y1="269.657" x2="379.721" y2="14.3185" stroke="#A5E5F4"/>
<line x1="-0.278864" y1="277.024" x2="379.721" y2="21.6852" stroke="#A5E5F4"/>
<line x1="-0.278864" y1="284.39" x2="379.721" y2="29.0519" stroke="#A5E5F4"/>
<line x1="-0.278864" y1="291.757" x2="379.721" y2="36.4188" stroke="#A5E5F4"/>
<line x1="-0.278864" y1="299.124" x2="379.721" y2="43.7855" stroke="#A5E5F4"/>
<line x1="-0.278864" y1="306.491" x2="379.721" y2="51.1522" stroke="#A5E5F4"/>
<line x1="-0.278864" y1="313.858" x2="379.721" y2="58.5191" stroke="#A5E5F4"/>
<line x1="-0.278864" y1="321.224" x2="379.721" y2="65.8858" stroke="#A5E5F4"/>
<line x1="-0.278864" y1="328.591" x2="379.721" y2="73.2528" stroke="#A5E5F4"/>
<line x1="-0.278864" y1="335.958" x2="379.721" y2="80.6195" stroke="#A5E5F4"/>
<line x1="-0.278864" y1="343.325" x2="379.721" y2="87.9862" stroke="#A5E5F4"/>
<line x1="-0.278864" y1="350.691" x2="379.721" y2="95.3529" stroke="#A5E5F4"/>
<line x1="-0.278864" y1="358.058" x2="379.721" y2="102.72" stroke="#A5E5F4"/>
<line x1="-0.278864" y1="365.425" x2="379.721" y2="110.087" stroke="#A5E5F4"/>
<line x1="-0.278864" y1="372.792" x2="379.721" y2="117.453" stroke="#A5E5F4"/>
<line x1="-0.278864" y1="380.159" x2="379.721" y2="124.82" stroke="#A5E5F4"/>
<line x1="-0.278864" y1="387.525" x2="379.721" y2="132.187" stroke="#A5E5F4"/>
<line x1="-0.278864" y1="394.892" x2="379.721" y2="139.554" stroke="#A5E5F4"/>
<line x1="-0.278864" y1="402.259" x2="379.721" y2="146.921" stroke="#A5E5F4"/>
<line x1="-0.278864" y1="409.626" x2="379.721" y2="154.287" stroke="#A5E5F4"/>
<line x1="-0.278864" y1="416.993" x2="379.721" y2="161.654" stroke="#A5E5F4"/>
<line x1="-0.278864" y1="424.359" x2="379.721" y2="169.021" stroke="#A5E5F4"/>
<line x1="-0.278864" y1="431.726" x2="379.721" y2="176.388" stroke="#A5E5F4"/>
<line x1="-0.278864" y1="439.093" x2="379.721" y2="183.754" stroke="#A5E5F4"/>
<line x1="-0.278864" y1="446.46" x2="379.721" y2="191.121" stroke="#A5E5F4"/>
<line x1="-0.278864" y1="453.826" x2="379.721" y2="198.488" stroke="#A5E5F4"/>
<line x1="-0.278864" y1="461.193" x2="379.721" y2="205.855" stroke="#A5E5F4"/>
<line x1="-0.278864" y1="468.56" x2="379.721" y2="213.222" stroke="#A5E5F4"/>
<line x1="-0.278864" y1="475.927" x2="379.721" y2="220.588" stroke="#A5E5F4"/>
<line x1="-0.278864" y1="483.293" x2="379.721" y2="227.955" stroke="#A5E5F4"/>
<line x1="-0.278864" y1="490.66" x2="379.721" y2="235.322" stroke="#A5E5F4"/>
<line x1="-0.278864" y1="498.027" x2="379.721" y2="242.689" stroke="#A5E5F4"/>
<line x1="-0.278864" y1="505.394" x2="379.721" y2="250.056" stroke="#A5E5F4"/>
<line x1="-0.278864" y1="512.761" x2="379.721" y2="257.422" stroke="#A5E5F4"/>
<line x1="-0.278864" y1="520.127" x2="379.721" y2="264.789" stroke="#A5E5F4"/>
<line x1="-0.278864" y1="527.494" x2="379.721" y2="272.156" stroke="#A5E5F4"/>
<line x1="-0.278864" y1="534.861" x2="379.721" y2="279.522" stroke="#A5E5F4"/>
<line x1="-0.278864" y1="542.228" x2="379.721" y2="286.889" stroke="#A5E5F4"/>
<line x1="-0.278864" y1="549.595" x2="379.721" y2="294.256" stroke="#A5E5F4"/>
<line x1="-0.278864" y1="556.961" x2="379.721" y2="301.623" stroke="#A5E5F4"/>
<line x1="-0.278864" y1="564.328" x2="379.721" y2="308.99" stroke="#A5E5F4"/>
<line x1="-0.278864" y1="571.695" x2="379.721" y2="316.356" stroke="#A5E5F4"/>
<line x1="-0.278864" y1="579.062" x2="379.721" y2="323.723" stroke="#A5E5F4"/>
<line x1="-0.278864" y1="586.428" x2="379.721" y2="331.09" stroke="#A5E5F4"/>
<line x1="-0.278864" y1="593.795" x2="379.721" y2="338.457" stroke="#A5E5F4"/>
<line x1="-0.278864" y1="601.162" x2="379.721" y2="345.824" stroke="#A5E5F4"/>
<line x1="-0.278864" y1="608.529" x2="379.721" y2="353.19" stroke="#A5E5F4"/>
<line x1="-0.278864" y1="615.896" x2="379.721" y2="360.557" stroke="#A5E5F4"/>
<line x1="-0.278864" y1="623.262" x2="379.721" y2="367.924" stroke="#A5E5F4"/>
<line x1="-0.278864" y1="630.629" x2="379.721" y2="375.291" stroke="#A5E5F4"/>
<line x1="-0.278864" y1="637.996" x2="379.721" y2="382.657" stroke="#A5E5F4"/>
<line x1="-0.278864" y1="645.363" x2="379.721" y2="390.024" stroke="#A5E5F4"/>
</mask>
<g mask="url(#mask0_1_2296)">
<path d="M348.616 408.653H59.4678V214.621L203.902 117.651L348.616 214.621V408.653Z" fill="#A5E5F4"/>
</g>
<path d="M348.616 408.653H59.4678V214.621L203.902 117.651L348.616 214.621V408.653Z" stroke="#A5E5F4" stroke-miterlimit="10"/>
</svg>
